REM DIRINDEX 1\2,1\3,1\4,1\5,1\6
REM DIRNAME cjc129,folder01,folder02,folder03,folder04,folder05
TITLE ""
FILE "DISC5Track10.mp3" MP3
  TRACK 01 AUDIO
    TITLE "0:"
    INDEX 01 00:00:00
  TRACK 02 AUDIO
    TITLE "3:cjc129_4137"
    INDEX 01 00:00:05
  TRACK 03 AUDIO
    TITLE "0:"
    INDEX 01 00:01:73
  TRACK 04 AUDIO
    TITLE "5:cjc129_4138"
    INDEX 01 00:02:30
  TRACK 05 AUDIO
    TITLE "0:"
    INDEX 01 00:12:67
  TRACK 06 AUDIO
    TITLE "4:cjc129_4139"
    INDEX 01 00:13:57
  TRACK 07 AUDIO
    TITLE "0:"
    INDEX 01 00:15:50
  TRACK 08 AUDIO
    TITLE "6:cjc129_4140"
    INDEX 01 00:16:06
  TRACK 09 AUDIO
    TITLE "0:"
    INDEX 01 00:20:57
  TRACK 10 AUDIO
    TITLE "3:cjc129_4141"
    INDEX 01 00:22:32
  TRACK 11 AUDIO
    TITLE "0:"
    INDEX 01 00:24:35
  TRACK 12 AUDIO
    TITLE "5:cjc129_4142"
    INDEX 01 00:24:65
  TRACK 13 AUDIO
    TITLE "0:"
    INDEX 01 00:28:74
  TRACK 14 AUDIO
    TITLE "4:cjc129_4143"
    INDEX 01 00:29:62
  TRACK 15 AUDIO
    TITLE "0:"
    INDEX 01 00:31:67
  TRACK 16 AUDIO
    TITLE "6:cjc129_4144"
    INDEX 01 00:32:21
  TRACK 17 AUDIO
    TITLE "0:"
    INDEX 01 00:36:15
  TRACK 18 AUDIO
    TITLE "3:cjc129_4145"
    INDEX 01 00:37:67
  TRACK 19 AUDIO
    TITLE "0:"
    INDEX 01 00:39:72
  TRACK 20 AUDIO
    TITLE "5:cjc129_4146"
    INDEX 01 00:40:30
  TRACK 21 AUDIO
    TITLE "0:"
    INDEX 01 00:44:36
  TRACK 22 AUDIO
    TITLE "4:cjc129_4147"
    INDEX 01 00:45:26
  TRACK 23 AUDIO
    TITLE "0:"
    INDEX 01 00:47:32
  TRACK 24 AUDIO
    TITLE "6:cjc129_4148"
    INDEX 01 00:47:68
  TRACK 25 AUDIO
    TITLE "0:"
    INDEX 01 00:52:24
  TRACK 26 AUDIO
    TITLE "3:cjc129_4149"
    INDEX 01 00:54:01
  TRACK 27 AUDIO
    TITLE "0:"
    INDEX 01 00:56:37
  TRACK 28 AUDIO
    TITLE "5:cjc129_4150"
    INDEX 01 00:56:69
  TRACK 29 AUDIO
    TITLE "0:"
    INDEX 01 01:02:06
  TRACK 30 AUDIO
    TITLE "4:cjc129_4151"
    INDEX 01 01:02:71
  TRACK 31 AUDIO
    TITLE "0:"
    INDEX 01 01:05:30
  TRACK 32 AUDIO
    TITLE "6:cjc129_4152"
    INDEX 01 01:05:64
  TRACK 33 AUDIO
    TITLE "0:"
    INDEX 01 01:10:43
  TRACK 34 AUDIO
    TITLE "3:cjc129_4153"
    INDEX 01 01:12:19
  TRACK 35 AUDIO
    TITLE "0:"
    INDEX 01 01:13:49
  TRACK 36 AUDIO
    TITLE "5:cjc129_4154"
    INDEX 01 01:14:06
  TRACK 37 AUDIO
    TITLE "0:"
    INDEX 01 01:20:73
  TRACK 38 AUDIO
    TITLE "4:cjc129_4155"
    INDEX 01 01:21:61
  TRACK 39 AUDIO
    TITLE "0:"
    INDEX 01 01:23:16
  TRACK 40 AUDIO
    TITLE "6:cjc129_4156"
    INDEX 01 01:23:50
  TRACK 41 AUDIO
    TITLE "0:"
    INDEX 01 01:27:38
  TRACK 42 AUDIO
    TITLE "3:cjc129_4157"
    INDEX 01 01:29:13
  TRACK 43 AUDIO
    TITLE "0:"
    INDEX 01 01:31:32
  TRACK 44 AUDIO
    TITLE "5:cjc129_4158"
    INDEX 01 01:31:63
  TRACK 45 AUDIO
    TITLE "0:"
    INDEX 01 01:34:42
  TRACK 46 AUDIO
    TITLE "4:cjc129_4159"
    INDEX 01 01:35:33
  TRACK 47 AUDIO
    TITLE "0:"
    INDEX 01 01:37:52
  TRACK 48 AUDIO
    TITLE "6:cjc129_4160"
    INDEX 01 01:38:10
  TRACK 49 AUDIO
    TITLE "0:"
    INDEX 01 01:41:50
  TRACK 50 AUDIO
    TITLE "3:cjc129_4161"
    INDEX 01 01:43:27
  TRACK 51 AUDIO
    TITLE "0:"
    INDEX 01 01:48:54
  TRACK 52 AUDIO
    TITLE "5:cjc129_4162"
    INDEX 01 01:49:10
  TRACK 53 AUDIO
    TITLE "0:"
    INDEX 01 01:54:19
  TRACK 54 AUDIO
    TITLE "4:cjc129_4163"
    INDEX 01 01:55:09
  TRACK 55 AUDIO
    TITLE "0:"
    INDEX 01 02:00:35
  TRACK 56 AUDIO
    TITLE "6:cjc129_4164"
    INDEX 01 02:00:65
  TRACK 57 AUDIO
    TITLE "0:"
    INDEX 01 02:05:33
  TRACK 58 AUDIO
    TITLE "3:cjc129_4165"
    INDEX 01 02:07:06
  TRACK 59 AUDIO
    TITLE "0:"
    INDEX 01 02:08:56
  TRACK 60 AUDIO
    TITLE "5:cjc129_4166"
    INDEX 01 02:09:13
  TRACK 61 AUDIO
    TITLE "0:"
    INDEX 01 02:12:54
  TRACK 62 AUDIO
    TITLE "4:cjc129_4167"
    INDEX 01 02:13:42
  TRACK 63 AUDIO
    TITLE "0:"
    INDEX 01 02:15:17
  TRACK 64 AUDIO
    TITLE "6:cjc129_4168"
    INDEX 01 02:15:49
  TRACK 65 AUDIO
    TITLE "0:"
    INDEX 01 02:19:31
  TRACK 66 AUDIO
    TITLE "3:cjc129_4169"
    INDEX 01 02:21:08
  TRACK 67 AUDIO
    TITLE "0:"
    INDEX 01 02:22:64
  TRACK 68 AUDIO
    TITLE "5:cjc129_4170"
    INDEX 01 02:23:21
  TRACK 69 AUDIO
    TITLE "0:"
    INDEX 01 02:25:57
  TRACK 70 AUDIO
    TITLE "4:cjc129_4171"
    INDEX 01 02:26:46
  TRACK 71 AUDIO
    TITLE "0:"
    INDEX 01 02:28:26
  TRACK 72 AUDIO
    TITLE "6:cjc129_4172"
    INDEX 01 02:28:57
  TRACK 73 AUDIO
    TITLE "0:"
    INDEX 01 02:32:35
